<svg xmlns="http://www.w3.org/2000/svg" xmlns:xlink="http://www.w3.org/1999/xlink" preserveAspectRatio="xMidYMid" width="50" height="50" viewBox="0 0 50 50">
  <defs>
    <style>
      .cls-1 {
        fill: #f9cb01;
        fill-rule: evenodd;
      }
    </style>
  </defs>
  <path d="M25.000,50.000 C11.193,50.000 -0.000,38.807 -0.000,25.000 C-0.000,11.193 11.193,-0.000 25.000,-0.000 C38.807,-0.000 50.000,11.193 50.000,25.000 C50.000,38.807 38.807,50.000 25.000,50.000 ZM38.435,15.393 C39.216,14.612 39.216,13.346 38.435,12.565 C37.654,11.784 36.388,11.784 35.607,12.565 L25.000,23.172 L14.393,12.565 C13.612,11.784 12.346,11.784 11.565,12.565 C10.784,13.346 10.784,14.612 11.565,15.393 L22.172,26.000 L11.565,36.607 C10.784,37.388 10.784,38.654 11.565,39.435 C12.346,40.216 13.612,40.216 14.393,39.435 L25.000,28.828 L35.607,39.435 C36.388,40.216 37.654,40.216 38.435,39.435 C39.216,38.654 39.216,37.388 38.435,36.607 L27.828,26.000 L38.435,15.393 Z" class="cls-1"/>
</svg>
